<svg width="500" height="500" viewBox="0 0 500 500" fill="none" xmlns="http://www.w3.org/2000/svg">
<rect width="500" height="500" fill="white"/>
<g clip-path="url(#clip0_1040_2)">
<path fill-rule="evenodd" clip-rule="evenodd" d="M203.579 75.3125C184.253 75.3268 168.613 91.0099 168.627 110.335C168.613 129.661 184.268 145.344 203.593 145.358H238.559V110.35C238.573 91.0242 222.918 75.3411 203.579 75.3125C203.593 75.3125 203.593 75.3125 203.579 75.3125V75.3125ZM203.579 168.726H110.365C91.04 168.74 75.3854 184.423 75.3997 203.749C75.3711 223.074 91.0257 238.757 110.351 238.786H203.579C222.904 238.772 238.559 223.088 238.544 203.763C238.559 184.423 222.904 168.74 203.579 168.726V168.726Z" fill="#36C5F0"/>
<path fill-rule="evenodd" clip-rule="evenodd" d="M425 203.749C425.014 184.423 409.36 168.74 390.034 168.726C370.709 168.74 355.054 184.423 355.069 203.749V238.786H390.034C409.36 238.772 425.014 223.088 425 203.749ZM331.772 203.749V110.335C331.787 91.0242 316.146 75.3411 296.821 75.3125C277.495 75.3268 261.841 91.0099 261.855 110.335V203.749C261.827 223.074 277.481 238.757 296.807 238.786C316.132 238.772 331.787 223.088 331.772 203.749Z" fill="#2EB67D"/>
<path fill-rule="evenodd" clip-rule="evenodd" d="M296.807 425.613C316.132 425.598 331.787 409.915 331.772 390.59C331.787 371.264 316.132 355.581 296.807 355.567H261.841V390.59C261.827 409.901 277.481 425.584 296.807 425.613ZM296.807 332.185H390.034C409.36 332.171 425.014 316.488 425 297.162C425.029 277.837 409.374 262.154 390.049 262.125H296.821C277.495 262.139 261.841 277.822 261.855 297.148C261.841 316.488 277.481 332.171 296.807 332.185V332.185Z" fill="#ECB22E"/>
<path fill-rule="evenodd" clip-rule="evenodd" d="M75.3999 297.162C75.3856 316.488 91.0402 332.171 110.366 332.185C129.691 332.171 145.346 316.488 145.331 297.162V262.139H110.366C91.0402 262.154 75.3856 277.837 75.3999 297.162ZM168.628 297.162V390.576C168.599 409.901 184.254 425.584 203.579 425.613C222.904 425.598 238.559 409.915 238.545 390.59V297.191C238.573 277.865 222.919 262.182 203.593 262.154C184.254 262.154 168.613 277.837 168.628 297.162C168.628 297.177 168.628 297.162 168.628 297.162Z" fill="#E01E5A"/>
</g>
<defs>
<clipPath id="clip0_1040_2">
<rect width="349.6" height="350.3" fill="white" transform="translate(75.3999 75.3125)"/>
</clipPath>
</defs>
</svg>
